<?xml version="1.0" standalone="no"?><!DOCTYPE svg PUBLIC "-//W3C//DTD SVG 1.1//EN" "http://www.w3.org/Graphics/SVG/1.1/DTD/svg11.dtd"><svg t="1686675778478" class="icon" viewBox="0 0 1024 1024" version="1.1" xmlns="http://www.w3.org/2000/svg" p-id="1201" width="32" height="32" xmlns:xlink="http://www.w3.org/1999/xlink"><path d="M219.424 18.304h530.272l201.152 219.424v768H219.424V18.304z" fill="#FFFFFF" p-id="1202"></path><path d="M733.696 253.728V50.304H251.424v923.424h667.424v-720h-185.152z m217.152-16v768H219.424V18.304h530.272l201.152 219.424z m-58.08-16l-127.04-138.624v138.624h127.04z" fill="#465F78" p-id="1203"></path><path d="M64 288a32 32 0 0 1 32-32h448a32 32 0 0 1 32 32v448a32 32 0 0 1-32 32H96a32 32 0 0 1-32-32V288zM640 416h224v37.344h-224V416zM640 509.344h224v37.312h-224v-37.312zM640 602.656h224V640h-224v-37.344z" fill="#EDC314" p-id="1204"></path><path d="M224 663.264V384h188.16v48.672H283.072v66.56h119.456v48.672H283.04v66.688h129.696v48.672H224z" fill="#FFFFFF" p-id="1205"></path></svg>